<svg width="400" height="300" viewBox="0 0 400 300" xmlns="http://www.w3.org/2000/svg">
  <style>
    .st0{fill:#F5F7FA;}
    .st1{fill:#4A6BFF;}
    .st2{fill:#FFFFFF;}
    .st3{fill:#2C3E50;}
    .st4{fill:#FF6B6B;}
  </style>
  
  <!-- Background -->
  <rect class="st0" width="400" height="300" rx="20"/>
  
  <!-- Laptop Base -->
  <rect class="st3" x="100" y="160" width="200" height="10" rx="2"/>
  <path class="st3" d="M120,170 L280,170 L290,200 L110,200 Z"/>
  
  <!-- Laptop Screen -->
  <rect class="st2" x="120" y="80" width="160" height="100" rx="5"/>
  <rect class="st1" x="120" y="80" width="160" height="20" rx="5"/>
  
  <!-- Login Form -->
  <rect class="st0" x="140" y="120" width="120" height="15" rx="3"/>
  <rect class="st0" x="140" y="145" width="120" height="15" rx="3"/>
  <rect class="st1" x="170" y="170" width="60" height="15" rx="3"/>
  
  <!-- Icons for Form -->
  <circle class="st1" cx="150" cy="127" r="4"/>
  <circle class="st1" cx="150" cy="152" r="4"/>
  
  <!-- Person silhouette -->
  <circle class="st1" cx="320" cy="100" r="20"/>
  <path class="st1" d="M320,130 C300,130 285,145 280,165 L360,165 C355,145 340,130 320,130z"/>
  
  <!-- Lock icon -->
  <circle class="st4" cx="60" cy="140" r="15"/>
  <rect class="st2" x="50" y="140" width="20" height="15" rx="2"/>
  <rect class="st2" x="55" y="130" width="10" height="20" rx="2"/>
  
  <!-- Secure badge -->
  <circle class="st1" cx="350" cy="220" r="25"/>
  <path class="st2" d="M350,205 L335,212 L335,230 L350,240 L365,230 L365,212 Z"/>
  <path class="st2" d="M345,225 L350,230 L360,220" stroke="white" stroke-width="3" fill="none"/>
</svg> 